<?xml version="1.0" standalone="no"?><!DOCTYPE svg PUBLIC "-//W3C//DTD SVG 1.1//EN" "http://www.w3.org/Graphics/SVG/1.1/DTD/svg11.dtd"><svg t="1718636888064" class="icon" viewBox="0 0 1024 1024" version="1.1" xmlns="http://www.w3.org/2000/svg" p-id="3256" xmlns:xlink="http://www.w3.org/1999/xlink" width="200" height="200"><path d="M996.352 860.16c17.408 17.408 27.648 40.96 27.648 67.584 0 53.248-43.008 96.256-96.256 96.256-26.624 0-50.176-10.24-67.584-27.648l-281.6-281.6C521.216 748.544 454.656 768 384 768 172.032 768 0 595.968 0 384S172.032 0 384 0s384 172.032 384 384c0 71.68-19.456 137.216-53.248 194.56l281.6 281.6zM384 96.256C225.28 96.256 96.256 225.28 96.256 384c0 158.72 129.024 287.744 287.744 287.744 158.72 0 287.744-129.024 287.744-287.744C671.744 225.28 542.72 96.256 384 96.256z" fill="" p-id="3257"></path></svg>